# xmcd
#
# Track frame offsets:
#   150
#   22424
#   47758
#   67311
#   84205
#   99823
#   117477
#   137116
#   158567
#   175561
#   195211
#   208729
#   224334
#   241700
#   257770
#   274272
#   289022
#   305933
#   326106
#   342939
#
# Disc length: 4741 seconds
#
# Revision: 0
# Processed by: cddbd v1.5PL3 Copyright (c) Steve Scherf et al.
# Submitted via: Media_Universe 3.0
#
DISCID=2c128314
DTITLE=Toby Keith - Blue Moon and Dream Walkin'
DYEAR=1900
DGENRE=Country
TTITLE0=Who's That Man
TTITLE1=A Woman's Touch
TTITLE2=Lucky Me
TTITLE3=She's Perfect
TTITLE4=She's Gonna Get It
TTITLE5=Me Too
TTITLE6=We Were In Love
TTITLE7=Tired
TTITLE8=Double Wide Paradise
TTITLE9=Yet
TTITLE10=She Ran Away With A Rodeo Clown
TTITLE11=Strangers Again
TTITLE12=I Don't Call Him Daddy
TTITLE13=Blue Bedroom
TTITLE14=If A Man Answers
TTITLE15=I Like My Women On The Trashy Side
TTITLE16=You Shouldn't Kiss Me Like That
TTITLE17=Upstairs Downtown
TTITLE18=Big Ole Truck
TTITLE19=Gimme 8 Seconds
EXTD=
EXTT0=
EXTT1=
EXTT2=
EXTT3=
EXTT4=
EXTT5=
EXTT6=
EXTT7=
EXTT8=
EXTT9=
EXTT10=
EXTT11=
EXTT12=
EXTT13=
EXTT14=
EXTT15=
EXTT16=
EXTT17=
EXTT18=
EXTT19=
PLAYORDER=
